<svg xmlns="http://www.w3.org/2000/svg" data-name="Layer 1" viewBox="0 0 512 512"><path fill="#acd037" d="M159.2,451.92993,116.77,494.36a233.96851,233.96851,0,0,1-81.18-59.61,230.0888,230.0888,0,0,1-21.76-29.28,41.83458,41.83458,0,0,1,5.99-51.75c.14-.14.29-.28.43-.41992a42.00909,42.00909,0,0,1,50.05-7c.42.23.84.47,1.26.71,1.01.56006,2.02,1.1499,3.03,1.74C126.2,379.14,149.64,427.63,159.2,451.92993Z"/><path fill="#9db732" d="M65.59,434.75a230.0888,230.0888,0,0,1-21.76-29.28,41.83458,41.83458,0,0,1,5.99-51.75c.14-.14.29-.28.43-.41992A41.76292,41.76292,0,0,1,64.90179,343.803,41.9727,41.9727,0,0,0,20.25,353.30005c-.14.13989-.29.27991-.43.41992a41.83458,41.83458,0,0,0-5.99,51.75,230.0888,230.0888,0,0,0,21.76,29.28,233.96851,233.96851,0,0,0,81.18,59.61l10.02112-10.02112A232.39921,232.39921,0,0,1,65.59,434.75Z"/><path fill="#acd037" d="M51.85011,460.25h83a0,0,0,0,1,0,0v0a44,44,0,0,1-44,44h-54a0,0,0,0,1,0,0v-29A15,15,0,0,1,51.85011,460.25Z" transform="rotate(180 85.85 482.25)"/><path fill="#acd037" d="M498.17,397.47a229.96729,229.96729,0,0,1-45.96,53.14,235.97965,235.97965,0,0,1-56.98,35.75l-18.08-18.08-1.8-1.8-22.55-22.55C362.36,419.63,385.8,371.14,437.41,340.75c1.43006-.84009,2.85-1.66,4.28-2.45h.01a42.00909,42.00909,0,0,1,50.05,7c.14.13989.29.27991.43.41992A41.8345,41.8345,0,0,1,498.17,397.47Z"/><path fill="#bad540" d="M377.14989,460.25h54a44,44,0,0,1,44,44v0a0,0,0,0,1,0,0h-83a15,15,0,0,1-15-15v-29A0,0,0,0,1,377.14989,460.25Z"/><path fill="#9db732" d="M441.69 338.30005C437.13 387.6 414.59 431.36 381.09 461.54q-2.82 2.53491-5.74 4.93994l-22.55-22.55C362.36 419.63 385.8 371.14 437.41 340.75 438.84 339.90991 440.26 339.09 441.69 338.30005zM159.2 451.92993l-17.54 17.54c-36.67-28.38-62.74-71.97-70.1-122.46 1.01.56006 2.02 1.1499 3.03 1.74C126.2 379.14 149.64 427.63 159.2 451.92993z"/><path fill="#acd037" d="M366.09,461.54a168.762,168.762,0,0,1-36.2,25.01q-5.985,3.0749-12.22,5.62988c-1.46.61011-2.94,1.19007-4.42,1.75A160.15939,160.15939,0,0,1,196.59,492.5a163.41878,163.41878,0,0,1-14.95-6.93994C125.89,456.23,86.62,395.26,84.54,323.73A195.90289,195.90289,0,0,1,106.88,226.28C135.47,172.21,188.68,135.14,250.6,133.34c65.43-1.9,123.46,36.07995,154.05,93.53a196.57964,196.57964,0,0,1,22.81,86.9C429.18,372.97,405.06,426.43994,366.09,461.54Z"/><path fill="#9db732" d="M226.59,492.5a163.41878,163.41878,0,0,1-14.95-6.93994C155.89,456.23,116.62,395.26,114.54,323.73A195.90289,195.90289,0,0,1,136.88,226.28c26.99482-51.05322,75.94355-86.93335,133.44428-92.29565A160.45147,160.45147,0,0,0,250.6,133.34c-61.92,1.8-115.13,38.87-143.72,92.94006a195.90289,195.90289,0,0,0-22.34,97.45c2.08,71.53,41.35,132.5,97.1,161.83008A163.41878,163.41878,0,0,0,196.59,492.5a159.86432,159.86432,0,0,0,64.81,11.65991q5.23581-.1527,10.385-.64A160.06935,160.06935,0,0,1,226.59,492.5Z"/><path fill="#9db732" d="M404.65,226.87c-29.44,35.77-84.98,59.88-148.65,59.88-64.02,0-119.82-24.38-149.12-60.47C135.47,172.21,188.68,135.14,250.6,133.34,316.03,131.43994,374.06,169.41992,404.65,226.87Z"/><ellipse cx="256" cy="153.25" fill="#acd037" rx="171" ry="118.5"/><path fill="#9db732" d="M115,153.25c0-61.94238,68.58594-112.77539,156-118.041q-7.416-.44677-15-.459c-94.44067,0-171,53.0542-171,118.5s76.55933,118.5,171,118.5q7.58322,0,15-.459C183.58594,266.02539,115,215.19238,115,153.25Z"/><circle cx="176.5" cy="70.25" r="62.5" fill="#e0e0e2"/><path fill="#d9d8da" d="M134,70.25A62.50887,62.50887,0,0,1,186.5,8.55615,62.49956,62.49956,0,1,0,176.5,132.75a62.91217,62.91217,0,0,0,10-.80615A62.509,62.509,0,0,1,134,70.25Z"/><circle cx="347.5" cy="70.25" r="62.5" fill="#e0e0e2"/><circle cx="347.5" cy="70.25" r="29.5" fill="#58565d"/><circle cx="176.5" cy="70.25" r="29.5" fill="#58565d"/><path fill="#3c3b41" d="M167,70.25a29.50911,29.50911,0,0,1,19.5-27.7583,29.5,29.5,0,1,0,0,55.5166A29.50923,29.50923,0,0,1,167,70.25Z"/><path fill="#e0e0e2" d="M255.85547,219.31787q-2.77515,0-5.54541-.07031a222.98636,222.98636,0,0,1-88.4585-20.69043,7.5,7.5,0,1,1,6.29688-13.61426,208.08564,208.08564,0,0,0,82.5415,19.30957,210.69763,210.69763,0,0,0,93.16455-19.311,7.50008,7.50008,0,0,1,6.291,13.61718A225.95113,225.95113,0,0,1,255.85547,219.31787Z"/><path fill="#9db732" d="M89.587,460.25h72a0,0,0,0,1,0,0v0a44,44,0,0,1-44,44h-43a0,0,0,0,1,0,0v-29A15,15,0,0,1,89.587,460.25Z" transform="rotate(180 118.087 482.25)"/><path fill="#acd037" d="M109.587,460.25h72a0,0,0,0,1,0,0v0a44,44,0,0,1-44,44h-43a0,0,0,0,1,0,0v-29a15,15,0,0,1,15-15Z" transform="rotate(180 138.087 482.25)"/><path fill="#9db732" d="M196.59,492.5a163.41878,163.41878,0,0,1-14.95-6.93994A312.05724,312.05724,0,0,0,168.55,419.95a281.87879,281.87879,0,0,0-20.23-48.13989c-2.35-4.38013-1.48-10.36011,1.93-13.37012s8.08-1.8999,10.43,2.48A303.23741,303.23741,0,0,1,182.45,412.73a335.76357,335.76357,0,0,1,14.51,75.72A11.998,11.998,0,0,1,196.59,492.5Z"/><ellipse cx="256" cy="374.25" fill="#e0e0e2" rx="49.5" ry="66.717"/><path fill="#d9d8da" d="M236.5,374.25c0-29.79785,14.49622-55.02515,34.5-63.59009a37.924,37.924,0,0,0-15-3.12732c-27.33807,0-49.5,29.87049-49.5,66.71741s22.16193,66.71729,49.5,66.71729a37.92387,37.92387,0,0,0,15-3.1272C250.99622,429.27527,236.5,404.04785,236.5,374.25Z"/><path fill="#9db732" d="M344.97826,460.25h43a44,44,0,0,1,44,44v0a0,0,0,0,1,0,0h-72a15,15,0,0,1-15-15v-29A0,0,0,0,1,344.97826,460.25Z"/><path fill="#acd037" d="M329.97826,460.25h43a44,44,0,0,1,44,44v0a0,0,0,0,1,0,0h-72a15,15,0,0,1-15-15v-29A0,0,0,0,1,329.97826,460.25Z"/><path fill="#9db732" d="M363.68,371.32007A267.92646,267.92646,0,0,0,343.45,417.89a293.5758,293.5758,0,0,0-13.49,68.08,3.6837,3.6837,0,0,1-.07.58008q-5.985,3.0749-12.22,5.62988a10.47029,10.47029,0,0,1-2.63-8.02,315.49112,315.49112,0,0,1,14.51-73.26A288.39688,288.39688,0,0,1,351.32,360.78c2.35-4.23,7.02-5.3,10.43-2.39S366.03,367.09,363.68,371.32007Z"/></svg>